<svg width="20" height="21" viewBox="0 0 20 21" fill="none" xmlns="http://www.w3.org/2000/svg">
<g clip-path="url(#clip0_21_8411)">
<path d="M10 2.30091C12.6703 2.30091 12.9863 2.31123 14.041 2.35926C15.0159 2.40372 15.5454 2.56647 15.8979 2.70342C16.3328 2.86354 16.7262 3.11925 17.0491 3.45167C17.3815 3.77456 17.6372 4.16795 17.7973 4.60283C17.9343 4.95532 18.097 5.48486 18.1415 6.45977C18.1895 7.51447 18.1998 7.83044 18.1998 10.5007C18.1998 13.171 18.1895 13.487 18.1415 14.5417C18.097 15.5166 17.9343 16.0461 17.7973 16.3986C17.6308 16.8298 17.3759 17.2214 17.0491 17.5482C16.7222 17.875 16.3307 18.1299 15.8995 18.2965C15.547 18.4334 15.0175 18.5962 14.0426 18.6406C12.9882 18.6887 12.6719 18.699 10.0016 18.699C7.3313 18.699 7.01493 18.6887 5.96062 18.6406C4.98571 18.5962 4.45618 18.4334 4.10368 18.2965C3.6688 18.1363 3.27541 17.8806 2.95252 17.5482C2.6201 17.2253 2.3644 16.8319 2.20427 16.397C2.06732 16.0446 1.90457 15.515 1.86011 14.5401C1.81208 13.4854 1.80176 13.1694 1.80176 10.4991C1.80176 7.82885 1.81208 7.51288 1.86011 6.45818C1.90457 5.48327 2.06732 4.95373 2.20427 4.60124C2.3644 4.16636 2.6201 3.77297 2.95252 3.45008C3.27541 3.11766 3.6688 2.86196 4.10368 2.70183C4.45618 2.56488 4.98571 2.40213 5.96062 2.35767C7.01532 2.30964 7.3313 2.29932 10.0016 2.29932L10 2.30091ZM10.0016 0.497559C7.28565 0.497559 6.94506 0.50907 5.87845 0.557895C4.81184 0.60672 4.08582 0.777012 3.44951 1.02431C2.7823 1.27537 2.17786 1.66889 1.67831 2.17746C1.17046 2.6772 0.777622 3.28163 0.527151 3.94865C0.277866 4.58497 0.108765 5.31179 0.0603366 6.37601C0.0119085 7.44024 0 7.7832 0 10.4991C0 13.2151 0.0115116 13.5557 0.0603366 14.6223C0.109162 15.6889 0.277866 16.4133 0.525167 17.0496C0.776219 17.7168 1.16974 18.3213 1.67831 18.8208C2.17795 19.3294 2.78236 19.723 3.44951 19.9744C4.08463 20.2213 4.81264 20.3904 5.87687 20.4392C6.94109 20.488 7.28406 20.4991 10 20.4991C12.7159 20.4991 13.0565 20.4876 14.1231 20.4392C15.1897 20.3908 15.9142 20.2213 16.5505 19.9744C17.2148 19.7174 17.8181 19.3245 18.3217 18.8208C18.8253 18.3172 19.2182 17.7139 19.4752 17.0496C19.7221 16.4145 19.8912 15.6865 19.9401 14.6223C19.9889 13.5581 20 13.2151 20 10.4991C20 7.7832 19.9885 7.44262 19.9401 6.37601C19.8916 5.3094 19.7221 4.58497 19.4752 3.94865C19.2239 3.2815 18.8302 2.6771 18.3217 2.17746C17.8219 1.6696 17.2175 1.27677 16.5505 1.0263C15.9142 0.777012 15.1874 0.607911 14.1231 0.559483C13.0589 0.511055 12.7159 0.499146 10 0.499146L10.0016 0.497559Z" fill="#939595"/>
<path d="M10.0006 5.3645C8.9849 5.3645 7.99202 5.6657 7.1475 6.22999C6.30299 6.79429 5.64478 7.59635 5.2561 8.53474C4.86743 9.47312 4.76576 10.5057 4.96394 11.5019C5.16212 12.498 5.65126 13.4131 6.36949 14.1313C7.08772 14.8494 8.00279 15.3385 8.99898 15.5366C9.99517 15.7347 11.0277 15.6329 11.9661 15.2442C12.9044 14.8555 13.7065 14.1972 14.2707 13.3526C14.8349 12.5081 15.136 11.5152 15.136 10.4995C15.136 9.82508 15.0032 9.1573 14.7451 8.53425C14.4871 7.91119 14.1088 7.34508 13.6319 6.86824C13.1551 6.3914 12.5889 6.01317 11.9658 5.75516C11.3428 5.49714 10.675 5.3644 10.0006 5.3645ZM10.0006 13.8327C9.34112 13.8327 8.69645 13.6371 8.14811 13.2707C7.59977 12.9043 7.17239 12.3836 6.92002 11.7743C6.66765 11.165 6.60162 10.4946 6.73028 9.84777C6.85893 9.20096 7.1765 8.60683 7.64283 8.1405C8.10915 7.67418 8.70328 7.35661 9.35009 7.22795C9.9969 7.09929 10.6673 7.16533 11.2766 7.4177C11.8859 7.67007 12.4067 8.09745 12.773 8.64579C13.1394 9.19412 13.335 9.83879 13.335 10.4983C13.335 11.3826 12.9837 12.2307 12.3584 12.856C11.733 13.4814 10.8849 13.8327 10.0006 13.8327Z" fill="#939595"/>
<path d="M15.3387 6.3609C16.0014 6.3609 16.5386 5.82365 16.5386 5.16092C16.5386 4.49819 16.0014 3.96094 15.3387 3.96094C14.6759 3.96094 14.1387 4.49819 14.1387 5.16092C14.1387 5.82365 14.6759 6.3609 15.3387 6.3609Z" fill="#939595"/>
</g>
<defs>
<clipPath id="clip0_21_8411">
<rect width="20" height="20" fill="white" transform="translate(0 0.5)"/>
</clipPath>
</defs>
</svg>
