<svg width="20" height="21" viewBox="0 0 20 21" fill="none" xmlns="http://www.w3.org/2000/svg">
<rect y="0.5" width="20" height="20" rx="2" fill="#939595"/>
<path d="M6.66683 16.3333H4.16683V7.16659H6.66683V16.3333ZM5.41683 6.10992C4.61183 6.10992 3.9585 5.45159 3.9585 4.63992C3.9585 3.82826 4.61183 3.16992 5.41683 3.16992C6.22183 3.16992 6.87516 3.82826 6.87516 4.63992C6.87516 5.45159 6.22266 6.10992 5.41683 6.10992ZM16.6668 16.3333H14.1668V11.6633C14.1668 8.85659 10.8335 9.06909 10.8335 11.6633V16.3333H8.3335V7.16659H10.8335V8.63742C11.9968 6.48242 16.6668 6.32326 16.6668 10.7008V16.3333Z" fill="white"/>
</svg>
