<svg width="20" height="21" viewBox="0 0 20 21" fill="none" xmlns="http://www.w3.org/2000/svg">
<g clip-path="url(#clip0_21_8370)">
<path d="M10 20.5C15.5228 20.5 20 16.0228 20 10.5C20 4.97715 15.5228 0.5 10 0.5C4.47715 0.5 0 4.97715 0 10.5C0 16.0228 4.47715 20.5 10 20.5Z" fill="#939595"/>
<path d="M8.16987 15.7751C12.6049 15.7751 15.0299 12.1001 15.0299 8.9151C15.0299 8.8101 15.0299 8.7051 15.0249 8.6051C15.4949 8.2651 15.9049 7.8401 16.2299 7.3551C15.7999 7.5451 15.3349 7.6751 14.8449 7.7351C15.3449 7.4351 15.7249 6.9651 15.9049 6.4001C15.4399 6.6751 14.9249 6.8751 14.3749 6.9851C13.9349 6.5151 13.3099 6.2251 12.6149 6.2251C11.2849 6.2251 10.2049 7.3051 10.2049 8.6351C10.2049 8.8251 10.2249 9.0101 10.2699 9.1851C8.26487 9.0851 6.48987 8.1251 5.29986 6.6651C5.09486 7.0201 4.97486 7.4351 4.97486 7.8751C4.97486 8.7101 5.39986 9.4501 6.04987 9.8801C5.65486 9.8701 5.28486 9.7601 4.95986 9.5801C4.95986 9.5901 4.95986 9.6001 4.95986 9.6101C4.95986 10.7801 5.78986 11.7501 6.89487 11.9751C6.69487 12.0301 6.47987 12.0601 6.25987 12.0601C6.10487 12.0601 5.95486 12.0451 5.80486 12.0151C6.10987 12.9751 6.99987 13.6701 8.05487 13.6901C7.22987 14.3351 6.18987 14.7201 5.05986 14.7201C4.86486 14.7201 4.67486 14.7101 4.48486 14.6851C5.53986 15.3751 6.80987 15.7751 8.16987 15.7751Z" fill="white"/>
</g>
<defs>
<clipPath id="clip0_21_8370">
<rect width="20" height="20" fill="white" transform="translate(0 0.5)"/>
</clipPath>
</defs>
</svg>
