<svg width="12" height="13" viewBox="0 0 12 13" fill="none" xmlns="http://www.w3.org/2000/svg">
<mask id="mask0_21_7819" style="mask-type:alpha" maskUnits="userSpaceOnUse" x="1" y="1" width="10" height="12">
<path d="M6 6C6.49445 6 6.9778 5.85338 7.38893 5.57867C7.80005 5.30397 8.12048 4.91353 8.3097 4.45671C8.49892 3.99989 8.54843 3.49723 8.45196 3.01228C8.3555 2.52732 8.1174 2.08187 7.76777 1.73223C7.41814 1.3826 6.97268 1.1445 6.48773 1.04804C6.00277 0.951575 5.50011 1.00108 5.04329 1.1903C4.58648 1.37952 4.19603 1.69995 3.92133 2.11108C3.64662 2.5222 3.5 3.00555 3.5 3.5C3.5 4.16304 3.76339 4.79893 4.23223 5.26777C4.70107 5.73661 5.33696 6 6 6ZM6 2C6.29667 2 6.58668 2.08797 6.83336 2.2528C7.08003 2.41762 7.27229 2.65189 7.38582 2.92598C7.49935 3.20007 7.52906 3.50167 7.47118 3.79264C7.4133 4.08361 7.27044 4.35088 7.06066 4.56066C6.85088 4.77044 6.58361 4.9133 6.29264 4.97118C6.00166 5.02906 5.70006 4.99935 5.42597 4.88582C5.15189 4.77229 4.91762 4.58003 4.7528 4.33336C4.58797 4.08668 4.5 3.79667 4.5 3.5C4.5 3.10218 4.65804 2.72065 4.93934 2.43934C5.22064 2.15804 5.60218 2 6 2Z" fill="#1B1C1D"/>
<path d="M7.50002 7H4.50002C3.80617 7.06783 3.1634 7.3948 2.7 7.91566C2.2366 8.43652 1.98665 9.11297 2.00002 9.81V12.5C2.00002 12.6326 2.0527 12.7598 2.14647 12.8536C2.24024 12.9473 2.36741 13 2.50002 13H9.50002C9.63263 13 9.75981 12.9473 9.85358 12.8536C9.94734 12.7598 10 12.6326 10 12.5V9.81C10.0134 9.11297 9.76344 8.43652 9.30004 7.91566C8.83664 7.3948 8.19388 7.06783 7.50002 7ZM9.00002 12H3.00002V9.81C2.98951 9.37808 3.13557 8.95692 3.41126 8.62426C3.68695 8.29159 4.07366 8.06987 4.50002 8H7.50002C7.92824 8.06584 8.31744 8.28644 8.59389 8.62003C8.87034 8.95361 9.01484 9.37701 9.00002 9.81V12Z" fill="#1B1C1D"/>
</mask>
<g mask="url(#mask0_21_7819)">
<path d="M12 1H0V13H12V1Z" fill="#1B1C1D"/>
</g>
</svg>
