<svg width="12" height="13" viewBox="0 0 12 13" fill="none" xmlns="http://www.w3.org/2000/svg">
<mask id="mask0_21_7833" style="mask-type:alpha" maskUnits="userSpaceOnUse" x="1" y="2" width="11" height="11">
<path d="M6.5 2C5.41221 2 4.34884 2.32257 3.44437 2.92692C2.5399 3.53126 1.83495 4.39025 1.41867 5.39524C1.00238 6.40023 0.893465 7.5061 1.10568 8.573C1.3179 9.63989 1.84173 10.6199 2.61092 11.3891C3.3801 12.1583 4.36011 12.6821 5.42701 12.8943C6.4939 13.1065 7.59977 12.9976 8.60476 12.5813C9.60976 12.1651 10.4687 11.4601 11.0731 10.5556C11.6774 9.65117 12 8.5878 12 7.5C11.9974 6.04212 11.417 4.64471 10.3862 3.61383C9.35529 2.58295 7.95788 2.00264 6.5 2ZM11 7H9C8.97572 5.73296 8.6933 4.48418 8.17 3.33C8.93086 3.62655 9.59644 4.12499 10.0951 4.77166C10.5938 5.41833 10.9066 6.18875 11 7ZM6.5 12C5.93 12 5.12 10.45 5 8H8C7.88 10.45 7.07 12 6.5 12ZM5 7C5.1 4.55 5.91 3 6.48 3C7.05 3 7.88 4.55 8 7H5ZM4.84 3.33C4.31326 4.48345 4.02743 5.73226 4 7H2C2.09427 6.18763 2.40862 5.41644 2.90912 4.76966C3.40963 4.12288 4.07728 3.62508 4.84 3.33ZM2.05 8H4C4.02428 9.26704 4.3067 10.5158 4.83 11.67C4.0785 11.3662 3.42325 10.8646 2.9338 10.2184C2.44435 9.5723 2.13895 8.8057 2.05 8ZM8.16 11.67C8.68675 10.5165 8.97258 9.26774 9 8H11C10.9057 8.81237 10.5914 9.58356 10.0909 10.2303C9.59038 10.8771 8.92273 11.3749 8.16 11.67Z" fill="#1B1C1D"/>
</mask>
<g mask="url(#mask0_21_7833)">
<path d="M12 1H0V13H12V1Z" fill="#1B1C1D"/>
</g>
</svg>
