<svg width="20" height="21" viewBox="0 0 20 21" fill="none" xmlns="http://www.w3.org/2000/svg">
<g clip-path="url(#clip0_21_8396)">
<path d="M19.5818 5.7C19.4687 5.27451 19.2459 4.88618 18.9356 4.57388C18.6253 4.26158 18.2384 4.03625 17.8136 3.92045C16.25 3.5 10 3.5 10 3.5C10 3.5 3.75 3.5 2.18636 3.92045C1.76161 4.03625 1.37472 4.26158 1.06441 4.57388C0.754097 4.88618 0.531255 5.27451 0.418182 5.7C0 7.27045 0 10.5455 0 10.5455C0 10.5455 0 13.8205 0.418182 15.3909C0.531255 15.8164 0.754097 16.2047 1.06441 16.517C1.37472 16.8293 1.76161 17.0547 2.18636 17.1705C3.75 17.5909 10 17.5909 10 17.5909C10 17.5909 16.25 17.5909 17.8136 17.1705C18.2384 17.0547 18.6253 16.8293 18.9356 16.517C19.2459 16.2047 19.4687 15.8164 19.5818 15.3909C20 13.8205 20 10.5455 20 10.5455C20 10.5455 20 7.27045 19.5818 5.7Z" fill="#939595"/>
<path d="M7.9541 13.5193L13.1814 10.5454L7.9541 7.57153V13.5193Z" fill="white"/>
</g>
<defs>
<clipPath id="clip0_21_8396">
<rect width="20" height="14.0909" fill="white" transform="translate(0 3.5)"/>
</clipPath>
</defs>
</svg>
