<svg width="32" height="32" viewBox="0 0 32 32" fill="none" xmlns="http://www.w3.org/2000/svg">
<mask id="mask0_21_8249" style="mask-type:alpha" maskUnits="userSpaceOnUse" x="9" y="1" width="16" height="31">
<path d="M9.49981 31C9.40195 30.9986 9.30664 30.9685 9.2257 30.9135C9.14477 30.8585 9.08176 30.7809 9.0445 30.6904C9.00723 30.5999 8.99735 30.5004 9.01607 30.4044C9.03479 30.3083 9.08129 30.2198 9.14981 30.15L22.8498 16.5L9.19981 2.83996C9.10566 2.7458 9.05277 2.61811 9.05277 2.48496C9.05277 2.35181 9.10566 2.22411 9.19981 2.12996C9.29396 2.0358 9.42166 1.98291 9.55481 1.98291C9.68796 1.98291 9.81566 2.0358 9.90981 2.12996L23.9098 16.13C23.9576 16.1748 23.9958 16.2291 24.0218 16.2893C24.0479 16.3495 24.0613 16.4144 24.0613 16.48C24.0613 16.5456 24.0479 16.6105 24.0218 16.6707C23.9958 16.7308 23.9576 16.7851 23.9098 16.83L9.84981 30.9C9.74986 30.9761 9.6249 31.0118 9.49981 31Z" fill="#1B1C1D"/>
</mask>
<g mask="url(#mask0_21_8249)">
<path d="M32 0H0V32H32V0Z" fill="#1B1C1D"/>
</g>
</svg>
